Coordinates
version=1
nRows=19
nColumns=34
inDegrees=yes

Units are S.I. units (second, meters, Newtons, ...)
If the header above contains a line with 'inDegrees', this indicates whether rotational values are in degrees (yes) or radians (no).

endheader
time	pelvis_tilt	pelvis_list	pelvis_rotation	pelvis_tx	pelvis_ty	pelvis_tz	hip_flexion_r	hip_adduction_r	hip_rotation_r	knee_angle_r	ankle_angle_r	subtalar_angle_r	mtp_angle_r	hip_flexion_l	hip_adduction_l	hip_rotation_l	knee_angle_l	ankle_angle_l	subtalar_angle_l	mtp_angle_l	lumbar_extension	lumbar_bending	lumbar_rotation	arm_flex_r	arm_add_r	arm_rot_r	elbow_flex_r	pro_sup_r	arm_flex_l	arm_add_l	arm_rot_l	elbow_flex_l	pro_sup_l
      1.11666670	     -4.75837940	      1.17287954	     -3.85807018	      1.76372870	      0.89393244	     -0.20250289	      0.73351863	     -4.72035779	      2.73586323	      0.00000000	      2.81520803	    -18.66749006	      0.00000000	     -0.25201039	     -4.69116743	     -5.77289851	      0.00000000	      3.45440319	     -2.78972761	      0.00000000	     -7.95540261	      0.93673009	      0.13318245	     12.57564415	     -4.94677634	     35.80814691	     75.26806167	     89.91602812	     12.06542043	     -7.20252408	     29.88484611	     70.05872364	     89.17843231
      1.13333330	     -4.76010038	      1.17235440	     -3.85750607	      1.76371510	      0.89395776	     -0.20252104	      0.73423403	     -4.72141350	      2.73605253	      0.00000000	      2.81517925	    -18.66750031	      0.00000000	     -0.25303246	     -4.69182522	     -5.77290697	      0.00005828	      3.45428188	     -2.78959943	      0.00000000	     -7.95557400	      0.93677908	      0.13302059	     12.57541897	     -4.94698120	     35.80810965	     75.26787597	     89.91586761	     12.06561698	     -7.20240501	     29.88483676	     70.05879792	     89.17842783
      1.15000000	     -4.76341949	      1.16637612	     -3.85471194	      1.76355925	      0.89355532	     -0.20230519	      0.73619937	     -4.72614911	      2.73673803	      0.00000000	      2.81506269	    -18.66729934	      0.00000000	     -0.25579198	     -4.69094860	     -5.77299668	      0.00014948	      3.45389418	     -2.78919271	      0.00000000	     -7.95623558	      0.93715570	      0.13220540	     12.57478791	     -4.94772061	     35.80798537	     75.26733808	     89.91545921	     12.06610636	     -7.20162570	     29.88499940	     70.05900176	     89.17842907
      1.16666670	     -4.87845049	      1.17511878	     -3.76151302	      1.76315553	      0.89290022	     -0.20195861	      0.86443578	     -4.73429812	      2.83747911	      0.00000000	      2.81607755	    -18.64511058	      0.00000000	     -0.08912006	     -4.69978416	     -5.76821476	      0.00000000	      3.41689156	     -2.73790170	      0.00000000	     -7.98979610	      0.93831801	      0.05071885	     12.55819433	     -4.97044921	     35.79715969	     75.23668826	     89.86747570	     12.15697850	     -7.10089032	     29.91141328	     70.09962341	     89.17942012
      1.18333330	     -4.87754653	      1.17265029	     -3.76159268	      1.76311466	      0.89261860	     -0.20170722	      0.86441844	     -4.73752879	      2.83749871	      0.00000000	      2.81625610	    -18.64527160	      0.00000000	     -0.08755007	     -4.70070101	     -5.76780878	      0.00000000	      3.41652937	     -2.73733953	      0.00000000	     -7.98871513	      0.93849958	      0.05071189	     12.55869752	     -4.97007642	     35.79707953	     75.23686360	     89.86706946	     12.15720203	     -7.10037684	     29.91176664	     70.09987529	     89.17944316
      1.20000000	     -4.88186778	      1.19008914	     -3.76319524	      1.76327071	      0.89267550	     -0.20141314	      0.86385841	     -4.73995568	      2.83962838	      0.00000000	      2.81819445	    -18.64610647	      0.00000000	     -0.07809315	     -4.72053738	     -5.76586613	      0.00000000	      3.41428030	     -2.73403758	      0.00000000	     -7.98229474	      0.93722647	      0.05126700	     12.56433799	     -4.96395513	     35.79721872	     75.23924259	     89.86464712	     12.16077011	     -7.09630125	     29.91447858	     70.10226678	     89.17963390
      1.21666670	     -4.88183869	      1.19351620	     -3.76349804	      1.76339319	      0.89276492	     -0.20149278	      0.86429489	     -4.73889527	      2.84025226	      0.00000000	      2.81863395	    -18.64622176	      0.00000000	     -0.07570060	     -4.72360623	     -5.76567120	      0.00000000	      3.41386726	     -2.73349181	      0.00000000	     -7.98143198	      0.93662801	      0.05143910	     12.56544244	     -4.96246983	     35.79736378	     75.23973601	     89.86426684	     12.16162729	     -7.09560685	     29.91496905	     70.10274193	     89.17967038
      1.23333330	     -4.88701598	      1.19867879	     -3.76412871	      1.76343676	      0.89316681	     -0.20157635	      0.86179170	     -4.73895130	      2.84108914	      0.00000000	      2.81930367	    -18.64640877	      0.00000000	     -0.07318614	     -4.72921865	     -5.76570114	      0.00000000	      3.41339139	     -2.73298222	      0.00000000	     -7.98039410	      0.93596088	      0.05151978	     12.56670565	     -4.96052853	     35.79763514	     75.24036871	     89.86384015	     12.16281778	     -7.09455893	     29.91564132	     70.10344592	     89.17972217
      1.25000000	     -4.89295073	      1.20411973	     -3.76496316	      1.76343904	      0.89365456	     -0.20167522	      0.85820389	     -4.74031402	      2.84206687	      0.00000000	      2.82008471	    -18.64657751	      0.00000000	     -0.06970894	     -4.73627210	     -5.76600027	      0.00000000	      3.41281590	     -2.73252589	      0.00000000	     -7.97939962	      0.93532064	      0.05150897	     12.56776651	     -4.95844333	     35.79803224	     75.24097995	     89.86342592	     12.16417525	     -7.09341978	     29.91635596	     70.10425832	     89.17978005
      1.26666670	     -5.03055756	      1.19120864	     -3.65440979	      1.76329259	      0.89382260	     -0.20186756	      0.96717889	     -4.70258411	      2.96344581	      0.00000000	      2.90878014	    -18.65095867	      0.00000000	      0.14637730	     -4.79097643	     -5.81806458	      0.00133554	      3.30764829	     -2.65724498	      0.00000000	     -7.91268753	      0.88051280	      0.02570869	     12.62846529	     -4.75119748	     35.85360309	     75.28351886	     89.81641724	     12.31433976	     -6.97858251	     29.99998030	     70.18907113	     89.18687655
      1.28333330	     -5.07078125	      1.20820103	     -3.74340133	      1.76358597	      0.89369372	     -0.20212503	      1.03907923	     -4.73348773	      2.95418686	      0.00000000	      2.93286658	    -18.67035582	      0.00000000	      0.16277104	     -4.78172847	     -5.82002341	      0.00929702	      3.27145653	     -2.62413962	      0.00000000	     -7.89912454	      0.90286727	     -0.00403122	     12.59453037	     -4.77106890	     35.86138490	     75.26856828	     89.79675700	     12.32406713	     -6.99781377	     30.02761773	     70.19774116	     89.18957618
      1.30000000	     -5.06802628	      1.20848080	     -3.74289654	      1.76379500	      0.89319853	     -0.20220350	      1.03997030	     -4.73392185	      2.95446433	      0.00000000	      2.93295055	    -18.67036578	      0.00000000	      0.16522425	     -4.78200926	     -5.82077015	      0.00838949	      3.27084569	     -2.62376287	      0.00000000	     -7.89936589	      0.90277755	     -0.00365104	     12.59447460	     -4.77093335	     35.86160985	     75.26836062	     89.79637717	     12.32411875	     -6.99847204	     30.02801115	     70.19778051	     89.18961810
      1.31666670	     -5.09036785	      1.20773951	     -3.73803273	      1.76423214	      0.89260118	     -0.20201892	      1.03559027	     -4.74130294	      2.95390898	      0.00000000	      2.93381504	    -18.67215916	      0.00000000	      0.16827664	     -4.77992640	     -5.82791091	      0.00802976	      3.26696344	     -2.62164730	      0.00000000	     -7.89825218	      0.90365221	     -0.00235186	     12.59205129	     -4.77027588	     35.86407698	     75.26720935	     89.79335787	     12.32456914	     -7.00155129	     30.03166855	     70.19922921	     89.18999722
      1.33333330	     -5.08977585	      1.20557082	     -3.73703675	      1.76429708	      0.89226787	     -0.20186633	      1.03672374	     -4.74215880	      2.95364362	      0.00000000	      2.93388236	    -18.67242664	      0.00000000	      0.16902369	     -4.77798379	     -5.82874549	      0.00785039	      3.26654956	     -2.62133763	      0.00000000	     -7.89809235	      0.90383316	     -0.00232838	     12.59155524	     -4.77023546	     35.86446254	     75.26706303	     89.79299177	     12.32453996	     -7.00170427	     30.03218602	     70.19945125	     89.19004837
      1.35000000	     -5.09542343	      1.20899475	     -3.73671683	      1.76435170	      0.89245495	     -0.20194927	      1.03622215	     -4.74270728	      2.95322104	      0.00000000	      2.93401854	    -18.67291645	      0.00000000	      0.16781511	     -4.78051844	     -5.82983283	      0.00827708	      3.26627244	     -2.62117855	      0.00000000	     -7.89757111	      0.90375001	     -0.00198912	     12.59101244	     -4.76972482	     35.86506856	     75.26706289	     89.79258141	     12.32467987	     -7.00209393	     30.03266256	     70.19981850	     89.19010168
      1.36666670	     -5.37438371	      1.29396150	     -3.75219575	      1.76465081	      0.89265259	     -0.20221658	      1.32973461	     -4.82998032	      2.86338354	      0.00000000	      2.96197428	    -18.79278909	      0.00000000	      0.49701767	     -4.72154201	     -6.09966464	      0.09636915	      3.21177318	     -2.50181136	      0.00000000	     -7.56331550	      0.86518275	      0.04942325	     12.34712829	     -4.65584214	     36.07597176	     75.25481399	     89.64240788	     12.33980269	     -7.12440965	     30.21066805	     70.33087083	     89.21017317
      1.38333330	     -5.41329628	      1.28017905	     -3.68134957	      1.76473498	      0.89320278	     -0.20248004	      1.34336115	     -4.83299818	      2.92012273	      0.00000000	      2.93938254	    -18.76681877	      0.00000000	      0.52592897	     -4.73768915	     -6.09227914	      0.04768037	      3.23125671	     -2.48397850	      0.00000000	     -7.53071206	      0.83784331	      0.05955758	     12.39218331	     -4.69074564	     36.06081575	     75.25070373	     89.62246672	     12.31236872	     -7.14180145	     30.23115769	     70.32901192	     89.21211434
      1.40000000	     -5.41728431	      1.27467234	     -3.68082032	      1.76482292	      0.89371734	     -0.20237658	      1.34526336	     -4.83873981	      2.92092746	      0.00000000	      2.93915894	    -18.76657876	      0.00000000	      0.52423117	     -4.73806274	     -6.09191377	      0.04835132	      3.23152927	     -2.48355187	      0.00000000	     -7.52994091	      0.83797700	      0.05927192	     12.39248783	     -4.69113946	     36.06075400	     75.25055733	     89.62206280	     12.31287017	     -7.14216321	     30.23131787	     70.32916074	     89.21214246
      1.41666670	     -5.43329268	      1.26475462	     -3.67602030	      1.76507814	      0.89406335	     -0.20240778	      1.34957674	     -4.85794035	      2.92808752	      0.00000000	      2.93661212	    -18.76296105	      0.00000000	      0.51926991	     -4.74150482	     -6.09080430	      0.04816678	      3.23328731	     -2.48100578	      0.00000000	     -7.52777674	      0.84060119	      0.05945335	     12.39338986	     -4.69360417	     36.06080394	     75.24835099	     89.61965951	     12.31697006	     -7.14707327	     30.23077933	     70.32911015	     89.21222277
